<?xml version="1.0" encoding="utf-8"?>
<!-- Generator: Adobe Illustrator 23.1.0, SVG Export Plug-In . SVG Version: 6.00 Build 0)  -->
<svg version="1.1" xmlns="http://www.w3.org/2000/svg" xmlns:xlink="http://www.w3.org/1999/xlink" x="0px" y="0px"
	 viewBox="0 0 759.6 270" style="enable-background:new 0 0 759.6 270;" xml:space="preserve">
<style type="text/css">
	.st0{display:none;}
	.st1{display:inline;fill:#232323;}
	.st2{fill:#AAA5A2;}
	.st3{fill:#333333;}
</style>
<g id="BG" class="st0">
	<rect id="XMLID_1904_" x="-314.4" y="-297.6" class="st1" width="1122" height="1122"/>
</g>
<g id="objects">
	<g id="XMLID_7336_">
		<g id="XMLID_7338_">
			<g id="XMLID_1298_">
				<path id="XMLID_1304_" class="st2" d="M233.4,227.1h7.8c3.2,0,6.1,0.6,8.4,1.9c2.4,1.3,4.1,3.1,5.4,5.5c1.2,2.4,1.9,5.2,1.9,8.5
					c0,5-1.4,8.8-4.1,11.6c-2.8,2.8-6.6,4.2-11.5,4.2h-7.8V227.1z M241.1,255.6c3.8,0,6.7-1,8.9-3.1c2.1-2.1,3.2-5.2,3.2-9.5
					c0-4.3-1.1-7.5-3.2-9.6c-2.1-2.1-5.1-3.1-8.9-3.1h-4.3v25.3H241.1z"/>
				<path id="XMLID_1299_" class="st2" d="M241.2,258.9h-8v-32h8c3.3,0,6.1,0.6,8.5,1.9c2.4,1.3,4.2,3.1,5.5,5.5
					c1.2,2.4,1.9,5.3,1.9,8.6c0,5-1.4,8.9-4.2,11.7C250.1,257.5,246.2,258.9,241.2,258.9z M233.6,258.6h7.7c4.9,0,8.7-1.4,11.4-4.1
					c2.7-2.7,4.1-6.6,4.1-11.5c0-3.3-0.6-6.1-1.8-8.5c-1.2-2.3-3-4.2-5.3-5.4c-2.3-1.2-5.1-1.9-8.3-1.9h-7.7V258.6z M241.1,255.8
					h-4.4v-25.6h4.4c3.8,0,6.8,1.1,9,3.2c2.2,2.1,3.2,5.4,3.2,9.7c0,4.3-1.1,7.5-3.2,9.6C248,254.7,244.9,255.8,241.1,255.8z
					 M237,255.4h4.1c3.7,0,6.7-1,8.8-3.1c2.1-2,3.1-5.2,3.1-9.4c0-4.2-1.1-7.4-3.1-9.4c-2.1-2-5-3.1-8.8-3.1H237V255.4z"/>
			</g>
			<g id="XMLID_1289_">
				<path id="XMLID_1295_" class="st2" d="M321.6,237.7c1.6,1,2.8,2.3,3.7,3.9c0.9,1.7,1.3,3.5,1.3,5.5c0,0.6,0,1-0.1,1.3h-17.9
					c0.1,2.2,0.9,4.1,2.2,5.7c1.3,1.6,3.1,2.4,5.4,2.4c1.9,0,3.4-0.3,4.6-1c1.2-0.7,2.2-1.7,2.9-2.9l2.5,1.7c-1,1.6-2.4,2.9-4,3.8
					c-1.7,0.9-3.6,1.4-5.9,1.4c-2.1,0-4-0.5-5.6-1.5c-1.6-1-2.9-2.4-3.9-4.1c-0.9-1.8-1.4-3.8-1.4-6c0-2.2,0.5-4.2,1.4-6
					c0.9-1.8,2.2-3.1,3.8-4.1c1.6-1,3.5-1.5,5.5-1.5C318.2,236.3,320,236.8,321.6,237.7z M323.5,245.9c-0.3-2.3-1.1-4-2.3-5.1
					c-1.2-1.1-2.9-1.7-4.9-1.7c-2,0-3.7,0.6-4.9,1.9c-1.3,1.3-2.1,2.9-2.4,4.8H323.5z"/>
				<path id="XMLID_1290_" class="st2" d="M316.4,259.7c-2.1,0-4-0.5-5.7-1.5c-1.7-1-3-2.4-3.9-4.2c-0.9-1.8-1.4-3.8-1.4-6.1
					c0-2.2,0.5-4.3,1.4-6.1c0.9-1.8,2.2-3.2,3.9-4.2c1.6-1,3.5-1.5,5.6-1.5c2,0,3.8,0.5,5.4,1.5l0,0c1.6,1,2.9,2.3,3.8,4
					c0.9,1.7,1.4,3.6,1.4,5.6c0,0.5,0,1,0,1.4l0,0.1h-17.8c0.2,2.1,0.9,3.9,2.1,5.4c1.3,1.6,3,2.3,5.3,2.3c1.9,0,3.3-0.3,4.5-1
					c1.2-0.7,2.2-1.6,2.9-2.8l0.1-0.1l0.1,0.1l2.6,1.8l-0.1,0.1c-1,1.6-2.4,2.9-4.1,3.8C320.8,259.2,318.7,259.7,316.4,259.7z
					 M316.3,236.4c-2,0-3.9,0.5-5.5,1.5c-1.6,1-2.9,2.3-3.7,4.1c-0.9,1.7-1.4,3.7-1.4,5.9c0,2.2,0.5,4.2,1.4,5.9
					c0.9,1.7,2.2,3.1,3.8,4.1c1.6,1,3.5,1.5,5.5,1.5c2.2,0,4.2-0.5,5.9-1.4c1.6-0.9,2.9-2.1,3.9-3.6l-2.2-1.5
					c-0.7,1.2-1.7,2.1-2.9,2.8c-1.2,0.7-2.8,1.1-4.7,1.1c-2.3,0-4.2-0.8-5.6-2.4c-1.3-1.6-2.1-3.5-2.2-5.8l0-0.2h17.9
					c0-0.3,0-0.7,0-1.2c0-2-0.4-3.8-1.3-5.5c-0.9-1.6-2.1-2.9-3.7-3.9C319.9,236.9,318.2,236.4,316.3,236.4z M323.7,246.1h-15l0-0.2
					c0.3-2,1.2-3.6,2.5-4.9c1.3-1.3,3-2,5.1-2c2.1,0,3.8,0.6,5,1.7c1.2,1.1,2,2.9,2.3,5.2L323.7,246.1z M309.1,245.8h14.2
					c-0.3-2.1-1.1-3.7-2.2-4.8c-1.2-1.1-2.8-1.7-4.8-1.7c-2,0-3.6,0.6-4.8,1.9C310.2,242.4,309.5,244,309.1,245.8z"/>
			</g>
			<g id="XMLID_1283_">
				<path id="XMLID_1287_" class="st2" d="M378,258.1c-1.6-0.9-2.8-2.2-3.6-3.8l2.8-1.4c1.1,2.4,3.4,3.7,6.7,3.7
					c1.6,0,2.9-0.3,4-0.9c1.1-0.6,1.6-1.5,1.6-2.7c0-1.3-0.4-2.2-1.3-2.8c-0.9-0.6-2.3-1-4.5-1.2c-3-0.2-5.1-0.9-6.4-2
					c-1.3-1.1-1.9-2.5-1.9-4.3c0-2,0.7-3.6,2.2-4.7c1.5-1.1,3.5-1.7,6-1.7c4.3,0,7.2,1.7,8.8,5.1l-2.8,1.4c-0.5-1.2-1.3-2.1-2.3-2.7
					c-1-0.6-2.3-0.9-3.9-0.9c-1.6,0-2.8,0.3-3.7,0.9c-0.8,0.6-1.3,1.4-1.3,2.5c0,1,0.5,1.8,1.4,2.5c0.9,0.6,2.5,1.1,4.7,1.2
					c2.8,0.2,4.8,0.9,6.2,2c1.3,1.1,2,2.5,2,4.3c0,1.5-0.4,2.7-1.3,3.7c-0.8,1-2,1.8-3.3,2.3c-1.4,0.5-2.9,0.8-4.5,0.8
					C381.4,259.5,379.5,259,378,258.1z"/>
				<path id="XMLID_1284_" class="st2" d="M383.5,259.7c-2.1,0-4-0.5-5.6-1.4c-1.6-0.9-2.9-2.2-3.7-3.9l-0.1-0.1l3.1-1.5l0.1,0.2
					c1.1,2.4,3.3,3.6,6.6,3.6c1.6,0,2.9-0.3,3.9-0.9c1-0.5,1.5-1.4,1.5-2.6c0-1.2-0.4-2.1-1.2-2.7c-0.8-0.6-2.3-1-4.4-1.2
					c-3-0.2-5.2-0.9-6.5-2c-1.3-1.1-2-2.6-2-4.4c0-2.1,0.8-3.7,2.2-4.8c1.5-1.1,3.5-1.7,6.1-1.7c4.4,0,7.4,1.8,8.9,5.2l0.1,0.1
					l-3.1,1.5l-0.1-0.2c-0.5-1.2-1.2-2.1-2.2-2.7c-1-0.6-2.3-0.9-3.8-0.9c-1.6,0-2.8,0.3-3.6,0.9c-0.8,0.6-1.2,1.3-1.2,2.4
					c0,1,0.4,1.7,1.3,2.3c0.9,0.6,2.5,1,4.6,1.2c2.8,0.3,4.9,0.9,6.2,2.1c1.4,1.1,2.1,2.6,2.1,4.5c0,1.5-0.4,2.8-1.3,3.8
					c-0.8,1.1-2,1.9-3.4,2.4C386.7,259.4,385.1,259.7,383.5,259.7z M374.5,254.4c0.8,1.5,2,2.7,3.5,3.6l0,0c1.5,0.9,3.4,1.3,5.5,1.3
					c1.6,0,3.1-0.3,4.4-0.8c1.4-0.5,2.5-1.3,3.3-2.3c0.8-1,1.2-2.2,1.2-3.6c0-1.8-0.6-3.1-2-4.2c-1.3-1.1-3.3-1.7-6.1-2
					c-2.2-0.2-3.8-0.6-4.8-1.3c-1-0.7-1.4-1.5-1.4-2.6c0-1.1,0.5-2,1.3-2.6c0.9-0.6,2.2-0.9,3.8-0.9c1.6,0,2.9,0.3,4,0.9
					c1,0.6,1.8,1.5,2.3,2.6l2.5-1.2c-1.5-3.2-4.4-4.9-8.6-4.9c-2.5,0-4.5,0.6-5.9,1.6c-1.4,1.1-2.1,2.6-2.1,4.6
					c0,1.8,0.6,3.1,1.9,4.2c1.2,1.1,3.4,1.7,6.3,2c2.2,0.2,3.7,0.6,4.6,1.2c0.9,0.6,1.3,1.6,1.3,3c0,1.3-0.6,2.3-1.7,2.9
					c-1.1,0.6-2.4,0.9-4.1,0.9c-3.3,0-5.6-1.2-6.8-3.6L374.5,254.4z"/>
			</g>
			<g id="XMLID_1274_">
				<path id="XMLID_1280_" class="st2" d="M443.4,232.1c-0.5-0.5-0.7-1.1-0.7-1.8c0-0.7,0.2-1.3,0.7-1.7c0.5-0.5,1.1-0.7,1.8-0.7
					c0.7,0,1.3,0.2,1.8,0.7c0.5,0.5,0.7,1.1,0.7,1.8c0,0.7-0.2,1.3-0.7,1.8c-0.5,0.5-1.1,0.7-1.8,0.7
					C444.5,232.8,443.9,232.6,443.4,232.1z M443.7,258.7V237h3.2v21.7H443.7z"/>
				<path id="XMLID_1275_" class="st2" d="M447,258.9h-3.5v-22h3.5V258.9z M443.8,258.6h2.8v-21.4h-2.8V258.6z M445.2,233
					c-0.7,0-1.4-0.3-1.9-0.8l0,0c-0.5-0.5-0.8-1.2-0.8-1.9c0-0.7,0.3-1.3,0.8-1.9c0.5-0.5,1.2-0.8,1.9-0.8c0.7,0,1.4,0.3,1.9,0.8
					c0.5,0.5,0.8,1.2,0.8,1.9c0,0.7-0.3,1.4-0.8,1.9C446.6,232.7,446,233,445.2,233z M443.6,231.9c0.5,0.5,1,0.7,1.7,0.7
					c0.6,0,1.2-0.2,1.6-0.7c0.5-0.5,0.7-1,0.7-1.7c0-0.7-0.2-1.2-0.7-1.7c-0.5-0.4-1-0.7-1.6-0.7c-0.7,0-1.2,0.2-1.7,0.7
					c-0.4,0.5-0.7,1-0.7,1.6C442.9,230.9,443.1,231.5,443.6,231.9z"/>
			</g>
			<g id="XMLID_1265_">
				<path id="XMLID_1271_" class="st2" d="M519.1,237v20.9c0,2-0.4,3.7-1.2,5.2c-0.8,1.5-1.9,2.7-3.4,3.6c-1.5,0.9-3.1,1.3-5,1.3h-9
					v-2.9h9c1.9,0,3.4-0.7,4.6-2c1.2-1.4,1.8-3.1,1.8-5.2v-2.4c-0.9,1.2-2,2.2-3.3,2.9c-1.3,0.7-2.7,1-4.3,1c-2.1,0-3.9-0.5-5.6-1.5
					c-1.6-1-2.9-2.4-3.9-4.1c-0.9-1.8-1.4-3.8-1.4-6c0-2.2,0.5-4.2,1.4-6c0.9-1.7,2.2-3.1,3.8-4.1c1.6-1,3.5-1.5,5.5-1.5
					c1.6,0,3,0.3,4.3,1c1.3,0.7,2.4,1.7,3.3,3V237H519.1z M512.3,255.5c1.2-0.7,2.1-1.8,2.7-3.1c0.6-1.3,1-2.8,1-4.5
					c0-1.7-0.3-3.2-1-4.5c-0.6-1.3-1.6-2.4-2.7-3.1c-1.2-0.7-2.5-1.1-4-1.1c-1.5,0-2.8,0.4-3.9,1.1c-1.1,0.7-2,1.8-2.7,3.1
					c-0.6,1.3-1,2.8-1,4.5c0,1.7,0.3,3.2,1,4.6c0.6,1.3,1.5,2.4,2.7,3.1c1.1,0.7,2.4,1.1,3.9,1.1
					C509.8,256.6,511.1,256.2,512.3,255.5z"/>
				<path id="XMLID_1266_" class="st2" d="M509.6,268.2h-9.2V265h9.2c1.8,0,3.3-0.7,4.5-2c1.2-1.3,1.8-3,1.8-5.1V256
					c-0.9,1.1-1.9,1.9-3.1,2.6c-1.3,0.7-2.8,1.1-4.3,1.1c-2.1,0-4-0.5-5.6-1.5c-1.7-1-3-2.4-3.9-4.2c-0.9-1.8-1.4-3.8-1.4-6.1
					c0-2.2,0.5-4.3,1.4-6c0.9-1.8,2.2-3.2,3.9-4.2c1.7-1,3.5-1.5,5.6-1.5c1.6,0,3.1,0.4,4.4,1.1c1.2,0.6,2.2,1.5,3.1,2.6v-2.9h3.5
					v21c0,2-0.4,3.7-1.2,5.3c-0.8,1.5-2,2.8-3.4,3.7C513.2,267.8,511.5,268.2,509.6,268.2z M500.7,267.9h8.8c1.8,0,3.5-0.4,4.9-1.3
					c1.4-0.9,2.5-2,3.3-3.5c0.8-1.5,1.2-3.2,1.2-5.2v-20.7h-2.8v3.6l-0.3-0.4c-0.9-1.2-2-2.2-3.3-2.9c-1.3-0.7-2.7-1-4.3-1
					c-2,0-3.9,0.5-5.5,1.5c-1.6,1-2.9,2.3-3.7,4c-0.9,1.7-1.4,3.7-1.4,5.9c0,2.2,0.5,4.2,1.4,6c0.9,1.7,2.2,3.1,3.8,4.1
					c1.6,1,3.4,1.5,5.5,1.5c1.5,0,2.9-0.3,4.2-1c1.3-0.7,2.4-1.6,3.2-2.9l0.3-0.4v2.9c0,2.1-0.6,3.9-1.8,5.3
					c-1.2,1.4-2.8,2.1-4.7,2.1h-8.8V267.9z M508.3,256.8c-1.5,0-2.8-0.4-4-1.1c-1.2-0.8-2.1-1.8-2.8-3.2c-0.7-1.4-1-2.9-1-4.6
					c0-1.7,0.3-3.2,1-4.5c0.7-1.3,1.6-2.4,2.8-3.1c1.2-0.8,2.5-1.1,4-1.1c1.5,0,2.9,0.4,4.1,1.1c1.2,0.8,2.1,1.8,2.8,3.2
					c0.7,1.4,1,2.9,1,4.6c0,1.7-0.3,3.2-1,4.6c-0.7,1.3-1.6,2.4-2.8,3.2l0,0C511.2,256.4,509.8,256.8,508.3,256.8z M508.3,239.3
					c-1.4,0-2.7,0.4-3.8,1.1c-1.1,0.7-2,1.7-2.6,3c-0.6,1.3-1,2.8-1,4.4c0,1.7,0.3,3.2,1,4.5c0.6,1.3,1.5,2.3,2.6,3
					c1.1,0.7,2.4,1.1,3.8,1.1c1.5,0,2.7-0.4,3.9-1.1c1.1-0.7,2-1.7,2.7-3c0.6-1.3,1-2.8,1-4.4c0-1.7-0.3-3.1-1-4.4
					c-0.6-1.3-1.5-2.3-2.7-3C511.1,239.7,509.8,239.3,508.3,239.3z"/>
			</g>
			<g id="XMLID_1259_">
				<path id="XMLID_1263_" class="st2" d="M584.1,237.2c1.3,0.6,2.3,1.5,3.1,2.7c0.8,1.2,1.1,2.6,1.1,4.3v14.5h-3.2v-13.1
					c0-4.3-1.9-6.5-5.8-6.5c-2.2,0-3.9,0.8-5,2.4c-1.1,1.6-1.7,3.7-1.7,6.4v10.9h-3.2V237h3.2v3.6c0.7-1.4,1.7-2.5,3-3.2
					c1.2-0.8,2.6-1.1,4.2-1.1C581.4,236.3,582.8,236.6,584.1,237.2z"/>
				<path id="XMLID_1260_" class="st2" d="M588.5,258.9H585v-13.3c0-4.2-1.8-6.3-5.6-6.3c-2.2,0-3.8,0.8-4.9,2.3
					c-1.1,1.5-1.6,3.6-1.6,6.3v11h-3.5v-22h3.5v3.2c0.7-1.2,1.6-2.1,2.7-2.8c1.2-0.8,2.7-1.2,4.3-1.2c1.5,0,3,0.3,4.3,0.9l0,0
					c1.3,0.6,2.4,1.6,3.1,2.8c0.8,1.2,1.2,2.7,1.2,4.4V258.9z M585.3,258.6h2.8v-14.4c0-1.6-0.4-3-1.1-4.2c-0.7-1.2-1.7-2.1-3-2.7h0
					c-1.3-0.6-2.6-0.9-4.1-0.9c-1.6,0-3,0.4-4.2,1.1c-1.2,0.7-2.2,1.8-2.9,3.2l-0.3,0.6v-4.1h-2.8v21.4h2.8v-10.7
					c0-2.7,0.6-4.9,1.7-6.5c1.1-1.6,2.9-2.4,5.1-2.4c3.9,0,5.9,2.2,5.9,6.6V258.6z"/>
			</g>
			<g id="XMLID_1250_">
				<path id="XMLID_1256_" class="st2" d="M653.7,237.7c1.6,1,2.8,2.3,3.7,3.9c0.9,1.7,1.3,3.5,1.3,5.5c0,0.6,0,1-0.1,1.3h-17.9
					c0.1,2.2,0.9,4.1,2.2,5.7c1.3,1.6,3.1,2.4,5.4,2.4c1.9,0,3.4-0.3,4.6-1c1.2-0.7,2.2-1.7,2.9-2.9l2.5,1.7c-1,1.6-2.4,2.9-4,3.8
					c-1.7,0.9-3.6,1.4-5.9,1.4c-2.1,0-4-0.5-5.6-1.5c-1.6-1-2.9-2.4-3.9-4.1c-0.9-1.8-1.4-3.8-1.4-6c0-2.2,0.5-4.2,1.4-6
					c0.9-1.8,2.2-3.1,3.8-4.1c1.6-1,3.5-1.5,5.5-1.5C650.3,236.3,652.1,236.8,653.7,237.7z M655.6,245.9c-0.3-2.3-1.1-4-2.3-5.1
					c-1.2-1.1-2.9-1.7-4.9-1.7c-2,0-3.7,0.6-4.9,1.9c-1.3,1.3-2.1,2.9-2.4,4.8H655.6z"/>
				<path id="XMLID_1251_" class="st2" d="M648.5,259.7c-2.1,0-4-0.5-5.7-1.5c-1.7-1-3-2.4-3.9-4.2c-0.9-1.8-1.4-3.8-1.4-6.1
					c0-2.3,0.5-4.3,1.4-6.1c0.9-1.8,2.2-3.2,3.9-4.2c1.6-1,3.5-1.5,5.6-1.5c2,0,3.8,0.5,5.4,1.5l0,0c1.6,1,2.9,2.3,3.8,4
					c0.9,1.7,1.4,3.6,1.4,5.6c0,0.6,0,1-0.1,1.4l0,0.1H641c0.2,2.1,0.9,3.9,2.1,5.4c1.3,1.6,3,2.3,5.3,2.3c1.9,0,3.3-0.3,4.5-1
					c1.2-0.7,2.2-1.6,2.9-2.8l0.1-0.1l0.1,0.1l2.6,1.8l-0.1,0.1c-1,1.6-2.4,2.9-4.1,3.8C652.9,259.2,650.8,259.7,648.5,259.7z
					 M648.4,236.4c-2,0-3.9,0.5-5.5,1.5c-1.6,1-2.9,2.3-3.7,4.1c-0.9,1.7-1.4,3.7-1.4,5.9c0,2.2,0.5,4.2,1.4,5.9
					c0.9,1.7,2.2,3.1,3.8,4.1c1.6,1,3.5,1.5,5.5,1.5c2.2,0,4.2-0.5,5.9-1.4c1.6-0.9,2.9-2.1,3.9-3.6l-2.2-1.5
					c-0.7,1.2-1.7,2.1-2.9,2.8c-1.2,0.7-2.8,1.1-4.7,1.1c-2.3,0-4.2-0.8-5.6-2.4c-1.3-1.6-2.1-3.5-2.2-5.8l0-0.2h17.9
					c0-0.2,0-0.6,0-1.2c0-2-0.4-3.8-1.3-5.5c-0.9-1.6-2.1-2.9-3.7-3.9C652,236.9,650.3,236.4,648.4,236.4z M655.8,246.1h-15l0-0.2
					c0.3-2,1.2-3.6,2.5-4.9c1.3-1.3,3-2,5.1-2c2.1,0,3.8,0.6,5,1.7c1.2,1.1,2,2.9,2.3,5.2L655.8,246.1z M641.2,245.8h14.2
					c-0.3-2.1-1.1-3.7-2.2-4.8c-1.2-1.1-2.8-1.7-4.8-1.7c-2,0-3.6,0.6-4.8,1.9C642.4,242.4,641.6,244,641.2,245.8z"/>
			</g>
			<g id="XMLID_1244_">
				<path id="XMLID_1248_" class="st2" d="M720.8,236.6v2.9c-0.6-0.3-1.4-0.5-2.1-0.5c-1.3,0-2.6,0.4-3.7,1.1
					c-1.1,0.7-2.1,1.8-2.8,3.2c-0.7,1.4-1,3.1-1,5v10.4h-3.2V237h3.2v4.4c0.8-1.6,1.9-2.9,3.2-3.8c1.3-0.9,2.7-1.3,4.3-1.3
					C719.4,236.3,720.1,236.4,720.8,236.6z"/>
				<path id="XMLID_1245_" class="st2" d="M711.3,258.9h-3.5v-22h3.5v3.9c0.8-1.4,1.8-2.5,2.9-3.3c1.3-0.9,2.8-1.4,4.4-1.4
					c0.7,0,1.5,0.1,2.2,0.3l0.1,0v3.3l-0.2-0.1c-0.6-0.3-1.3-0.5-2.1-0.5c-1.3,0-2.5,0.4-3.6,1.1c-1.1,0.7-2,1.8-2.7,3.2
					c-0.7,1.4-1,3-1,4.9V258.9z M708.1,258.6h2.8v-10.2c0-1.9,0.4-3.6,1.1-5.1c0.7-1.4,1.6-2.5,2.8-3.3c1.2-0.8,2.5-1.1,3.8-1.1
					c0.7,0,1.4,0.1,2,0.4v-2.5c-0.6-0.2-1.3-0.3-2-0.3c-1.6,0-3,0.4-4.2,1.3c-1.3,0.9-2.3,2.1-3.1,3.7l-0.3,0.6v-4.9h-2.8V258.6z"/>
			</g>
		</g>
		<g id="XMLID_1226_">
			<path id="XMLID_1242_" class="st3" d="M93.2,20H74v66.2h57.7v12.4H74v91.7h30.2v11H16.3v-11h16.5V20H16.3V9h117.8
				c4,0,7,0.1,8.9,0.4c1.9,0.3,3.7,1.3,5.4,3c1.7,1.7,2.5,4.4,2.5,8.1l-7.4,46.1h-10.7l-5.5-27.2c-1.6-8.2-4.7-13.5-9.2-15.9
				C113.6,21.2,105.3,20,93.2,20z"/>
			<path id="XMLID_1239_" class="st3" d="M219.4,103.8v76.5c0,3.5,0.9,6.3,2.6,8.4c1.7,2,4.3,3,7.9,3c3.5,0,7.6-1.9,12.2-5.7
				l3.5,4.7c-10.5,9.6-21,14.4-31.5,14.4c-12.5,0-20.1-5.8-23-17.5c-6.8,11.7-16.9,17.5-30.1,17.5c-15.1,0-26.6-4.9-34.4-14.7
				c-7.9-9.8-11.8-22.2-11.8-37.4c0-15.1,4.2-27.6,12.7-37.5c8.5-9.8,20.3-14.8,35.5-14.8c11.7,0,20.7,4.7,27,14v-11H219.4z
				 M150.7,123.1c-3.7,7.3-5.5,17.3-5.5,29.9c0,12.6,1.8,22.6,5.5,29.9c3.7,7.3,9.3,11,16.8,11c7.5,0,13.3-3.7,17.3-11.1
				c4-7.4,6-17.3,6-29.8c0-12.5-2-22.4-6-29.8c-4-7.4-9.8-11.1-17.3-11.1C160,112.1,154.4,115.8,150.7,123.1z"/>
			<path id="XMLID_1237_" class="st3" d="M261.3,120c-3.1-4.9-4.7-9.2-4.7-13c0-3.8,1.5-7.2,4.4-10.1c3-3,6.5-4.4,10.7-4.4
				c4.2,0,7.8,1.5,10.7,4.4c3,2.9,4.4,6.5,4.4,10.5c0,4.1-2,8.4-6.1,13c10.8,7.9,19,15.6,24.8,23.1c5.8,7.5,8.7,16.3,8.7,26.2
				c0,9.9-3.7,18.3-11.2,25.2c-7.5,6.9-18.1,10.3-31.9,10.3c-6.3,0-12.6-1.4-19-4.1c-6.4-2.8-11.2-6.2-14.5-10.2l4.5-4.7
				c5.8,4.6,12,6.9,18.7,6.9c6.7,0,12.2-1.8,16.4-5.4c4.3-3.6,6.4-9.2,6.4-16.8c0-12.1-4.5-24.7-13.4-37.8l-29.7,37.2l-4.9-4.3
				C245.7,149.7,254.2,134.4,261.3,120z"/>
			<path id="XMLID_1235_" class="st3" d="M354.8,63.7v50.6c4.6-5,9.5-8.5,14.9-10.4c5.3-2,12.1-2.9,20.3-2.9
				c8.2,0,14.9,2.6,20.1,7.8c5.2,5.2,7.8,12.2,7.8,21.1v50.6c0,3.5,0.9,6.3,2.6,8.4c1.7,2,4.3,3,7.9,3c3.5,0,7.6-1.9,12.2-5.7
				l3.5,4.7c-10.5,9.6-21,14.4-31.5,14.4c-16.1,0-24.2-9.6-24.2-28.9v-50.6c0-4.1-1.2-7.2-3.7-9.4c-2.5-2.2-6-3.3-10.4-3.3
				c-4.5,0-8.8,1.8-13,5.5c-4.2,3.7-6.3,8.5-6.3,14.4v69.5h-29.5V61.1c-7.2,1.8-12.7,5-16.5,9.6l-5.3-6.1c3.8-3.9,8.6-7.1,14.5-9.4
				c5.8-2.4,11.6-3.5,17.3-3.5c5.7,0,10.4,1.1,14.1,3.4C353,57.4,354.8,60.3,354.8,63.7z"/>
			<path id="XMLID_1232_" class="st3" d="M462.1,100.9c12.3,0,18.5,5.3,18.5,15.9v63.5c0,3.5,0.9,6.3,2.6,8.4c1.7,2,4.3,3,7.9,3
				c3.5,0,7.6-1.9,12.2-5.7l3.5,4.7c-10.5,9.6-21,14.4-31.5,14.4c-16.1,0-24.2-9.6-24.2-28.9v-65.9c-7.2,1.8-12.7,5-16.5,9.6
				l-5.3-6.1c3.8-3.9,8.6-7.1,14.5-9.4C449.6,102.1,455.7,100.9,462.1,100.9z M454.7,81.5c-3.1-3.1-4.6-6.8-4.6-11.1
				c0-4.3,1.5-8,4.6-11.1c3.1-3.1,6.8-4.6,11.1-4.6s8,1.5,11.1,4.6c3.1,3.1,4.6,6.8,4.6,11.1c0,4.3-1.5,8-4.6,11.1
				c-3.1,3.1-6.8,4.6-11.1,4.6S457.8,84.6,454.7,81.5z"/>
			<path id="XMLID_1229_" class="st3" d="M518.8,190.1c-9.6-10-14.5-22.4-14.5-37.1c0-14.7,4.8-27.1,14.5-37.1
				c9.6-10,22.2-15,37.7-15c15.5,0,28,5,37.7,15c9.6,10,14.5,22.4,14.5,37.1c0,14.7-4.8,27.1-14.5,37.1c-9.6,10-22.2,15.1-37.7,15.1
				C541,205.2,528.4,200.1,518.8,190.1z M540.3,121.4c-3.7,8.2-5.5,18.7-5.5,31.6c0,12.9,1.8,23.4,5.5,31.6
				c3.7,8.2,9.1,12.3,16.3,12.3c7.2,0,12.7-4.1,16.3-12.3c3.7-8.2,5.5-18.7,5.5-31.6c0-12.9-1.8-23.4-5.5-31.6
				c-3.7-8.2-9.1-12.3-16.3-12.3C549.4,109.1,544,113.2,540.3,121.4z"/>
			<path id="XMLID_1227_" class="st3" d="M627.1,103.8c10.8,0,20.5,3.3,29.1,9.8c5-4.7,10.1-8,15.3-9.9c5.2-1.9,12-2.9,20.2-2.9
				c8.2,0,14.9,2.6,20.1,7.8c5.2,5.2,7.8,12.2,7.8,21.1v50.6c0,3.5,0.9,6.3,2.6,8.4c1.7,2,4.3,3,7.9,3c3.5,0,7.6-1.9,12.2-5.7
				l3.5,4.7c-10.5,9.6-21,14.4-31.5,14.4c-16.1,0-24.2-9.6-24.2-28.9v-50.6c0-4.1-1.2-7.2-3.7-9.4c-2.5-2.2-5.9-3.3-10.3-3.3
				c-4.4,0-8.7,1.8-13,5.3c-4.3,3.5-6.4,8.1-6.4,13.8v70.2h-29.5v-90.5c-5.9,0-11.1,1-15.7,2.9l-2.8-7.3
				C614.2,105,620.4,103.8,627.1,103.8z"/>
		</g>
		<rect id="XMLID_7337_" x="16.3" y="233.8" class="st3" width="169" height="18.3"/>
	</g>
</g>
</svg>
