<?xml version="1.0" encoding="utf-8"?>
<!-- Generator: Adobe Illustrator 23.1.0, SVG Export Plug-In . SVG Version: 6.00 Build 0)  -->
<svg version="1.1" id="Icons" xmlns="http://www.w3.org/2000/svg" xmlns:xlink="http://www.w3.org/1999/xlink" x="0px" y="0px"
	 viewBox="0 0 512 416" style="enable-background:new 0 0 512 416;" xml:space="preserve">
<style type="text/css">
	.st0{fill:#333333;stroke:#FFFFFF;stroke-width:15;stroke-miterlimit:10;}
</style>
<path class="st0" d="M463.6,414.5c4.1-4.4,6.1-10.2,5.7-16.1L448,121c-0.9-11.1-10.2-19.7-21.3-19.7h-64
	C362.7,42.4,314.9-5.3,256-5.3S149.3,42.4,149.3,101.3h-64c-11.2,0-20.5,8.6-21.3,19.7L42.7,398.4c-0.9,11.7,7.9,22,19.6,22.9
	c0.6,0,1.1,0.1,1.7,0.1h384C453.9,421.3,459.6,418.9,463.6,414.5z M256,37.3c35.3,0,64,28.7,64,64H192C192,66,220.7,37.3,256,37.3z
	 M87,378.7L105,144h44.2v42.7c0,11.8,9.6,21.3,21.3,21.3c11.8,0,21.3-9.6,21.3-21.3V144h128v42.7c0,11.8,9.6,21.3,21.3,21.3
	s21.3-9.6,21.3-21.3V144h44.2l18,234.7H87z"/>
</svg>
